<svg width="185" height="185" viewBox="0 0 185 185" fill="none" xmlns="http://www.w3.org/2000/svg">
<path fill-rule="evenodd" clip-rule="evenodd" d="M92.5 15.4167C49.928 15.4167 15.4167 49.928 15.4167 92.5C15.4167 135.072 49.928 169.583 92.5 169.583C135.072 169.583 169.583 135.072 169.583 92.5C169.583 87.7047 169.146 83.018 168.312 78.4762C167.543 74.2888 170.314 70.2709 174.501 69.5018C178.688 68.7327 182.706 71.5036 183.475 75.6907C184.477 81.1472 185 86.7658 185 92.5C185 143.586 143.586 185 92.5 185C41.4136 185 0 143.586 0 92.5C0 41.4136 41.4136 0 92.5 0C111.103 0 128.445 5.49962 142.96 14.9639C146.526 17.289 147.532 22.0649 145.207 25.631C142.882 29.1972 138.106 30.2032 134.54 27.878C122.453 19.9971 108.023 15.4167 92.5 15.4167ZM167.326 40.7994C170.336 43.8097 170.336 48.6903 167.326 51.7006L97.9506 121.076C94.9405 124.086 90.0595 124.086 87.0494 121.076L56.216 90.2422C53.2058 87.2321 53.2058 82.3512 56.216 79.3411C59.2264 76.3308 64.107 76.3308 67.1173 79.3411L92.5 104.724L156.424 40.7994C159.435 37.7891 164.315 37.7891 167.326 40.7994Z" fill="#018F6A"/>
</svg>
