<svg width="24" height="18" viewBox="0 0 24 18" fill="none" xmlns="http://www.w3.org/2000/svg">
<path d="M22.9091 7.62586H3.72417L9.4984 1.86973C9.6026 1.76941 9.68571 1.64941 9.74288 1.51673C9.80006 1.38405 9.83015 1.24135 9.83141 1.09695C9.83267 0.952552 9.80507 0.809351 9.75021 0.675701C9.69536 0.542051 9.61436 0.420629 9.51193 0.318521C9.4095 0.216413 9.28769 0.135663 9.15362 0.0809821C9.01955 0.0263017 8.8759 -0.00121371 8.73105 4.10608e-05C8.5862 0.00129584 8.44305 0.0312959 8.30995 0.0882907C8.17686 0.145286 8.05648 0.228134 7.95584 0.332001L0.319407 7.9445C0.114891 8.14844 0 8.425 0 8.71336C0 9.00173 0.114891 9.27829 0.319407 9.48223L7.95584 17.0947C8.16159 17.2928 8.43716 17.4024 8.7232 17.4C9.00923 17.3975 9.28285 17.2831 9.48512 17.0815C9.68738 16.8798 9.80211 16.6071 9.8046 16.3219C9.80708 16.0368 9.69712 15.7621 9.4984 15.557L3.72417 9.80086H22.9091C23.1984 9.80086 23.4759 9.68629 23.6805 9.48234C23.8851 9.2784 24 9.00179 24 8.71336C24 8.42494 23.8851 8.14833 23.6805 7.94438C23.4759 7.74044 23.1984 7.62586 22.9091 7.62586Z" fill="#121212"/>
</svg>
