<svg width="16" height="16" viewBox="0 0 16 16" fill="none" xmlns="http://www.w3.org/2000/svg">
<path d="M14.7732 12.1162C15.3498 11.6503 15.5954 10.887 15.3987 10.1723C15.202 9.45764 14.6004 8.92748 13.8666 8.82218V8.53422C13.8666 8.09246 13.5084 7.73431 13.0666 7.73431H8.26659V7.20103H9.59993C10.0417 7.20103 10.3999 6.84289 10.3999 6.40112V5.06794C10.3983 4.28503 9.90862 3.58614 9.17328 3.3172C9.78796 2.81973 10.0224 1.98899 9.75856 1.2436C9.49468 0.498223 8.78962 0 7.99884 0C7.20807 0 6.50307 0.498223 6.23919 1.2436C5.97532 1.98899 6.20979 2.81973 6.82447 3.3172C6.08994 3.58686 5.60126 4.28556 5.59995 5.06794V6.40112C5.59995 6.84289 5.95813 7.20103 6.39994 7.20103H7.73328V7.73431H2.9333C2.49149 7.73431 2.1333 8.09246 2.1333 8.53422V8.82218C1.39949 8.92748 0.797872 9.45764 0.601154 10.1723C0.404436 10.887 0.65006 11.6503 1.22665 12.1162C0.491279 12.3851 0.00162499 13.084 0 13.8669V15.2001C0 15.6419 0.358186 16 0.799997 16H3.99998C4.44179 16 4.79998 15.6419 4.79998 15.2001V13.8669C4.79836 13.084 4.30867 12.3851 3.57333 12.1162C4.14992 11.6503 4.39555 10.887 4.19883 10.1723C4.00211 9.45764 3.40049 8.92748 2.66668 8.82218V8.53422C2.66668 8.38696 2.78608 8.26759 2.93333 8.26759H7.73331V8.82218C6.9995 8.92748 6.39788 9.45764 6.20116 10.1723C6.00445 10.887 6.25007 11.6503 6.82666 12.1162C6.09129 12.3851 5.60163 13.084 5.60001 13.8669V15.2001C5.60001 15.6419 5.9582 16 6.40001 16H9.59999C10.0418 16 10.4 15.6419 10.4 15.2001V13.8669C10.3984 13.084 9.90868 12.3851 9.17334 12.1162C9.74993 11.6503 9.99555 10.887 9.79884 10.1723C9.60212 9.45764 9.00049 8.92748 8.26669 8.82218V8.26759H13.0667C13.2139 8.26759 13.3333 8.38696 13.3333 8.53422V8.82218C12.5995 8.92748 11.9979 9.45764 11.8012 10.1723C11.6045 10.887 11.8501 11.6503 12.4267 12.1162C11.6913 12.3851 11.2016 13.084 11.2 13.8669V15.2001C11.2 15.6419 11.5582 16 12 16H15.2C15.6418 16 16 15.6419 16 15.2001V13.8669C15.9983 13.084 15.5086 12.3851 14.7732 12.1162ZM6.66657 1.86831C6.66657 1.13202 7.26353 0.535125 7.99991 0.535125C8.73628 0.535125 9.33324 1.13202 9.33324 1.86831C9.33324 2.6046 8.73628 3.2015 7.99991 3.2015C7.26391 3.20062 6.66747 2.60426 6.66657 1.86831ZM6.13326 5.06794C6.13413 4.33202 6.73057 3.73566 7.4666 3.73475H8.53325C9.26924 3.73562 9.86568 4.33199 9.86659 5.06794V6.40112C9.86659 6.54839 9.74721 6.66775 9.59993 6.66775C9.45265 6.66775 9.33328 6.54839 9.33328 6.40112V5.06794C9.33328 4.92067 9.2139 4.80131 9.06662 4.80131C8.91934 4.80131 8.79996 4.9207 8.79996 5.06794V6.40112C8.80084 6.49218 8.81743 6.58235 8.84903 6.66775H7.15091C7.1825 6.58235 7.1991 6.49215 7.19997 6.40112V5.06794C7.19997 4.92067 7.0806 4.80131 6.93332 4.80131C6.78604 4.80131 6.66666 4.9207 6.66666 5.06794V6.40112C6.66666 6.54839 6.54726 6.66775 6.40001 6.66775C6.25273 6.66775 6.13335 6.54839 6.13335 6.40112V5.06794H6.13326ZM2.93327 12.5338C3.66927 12.5346 4.2657 13.131 4.26661 13.8669V15.2001C4.26661 15.3474 4.1472 15.4667 3.99995 15.4667C3.85267 15.4667 3.7333 15.3474 3.7333 15.2001V13.8669C3.7333 13.7197 3.61389 13.6003 3.46664 13.6003C3.31936 13.6003 3.19999 13.7197 3.19999 13.8669V15.2001C3.20086 15.2912 3.21746 15.3814 3.24905 15.4667H1.55087C1.58246 15.3814 1.59906 15.2911 1.59993 15.2001V13.8669C1.59993 13.7197 1.48053 13.6003 1.33328 13.6003C1.18603 13.6003 1.06662 13.7197 1.06662 13.8669V15.2001C1.06662 15.3474 0.947215 15.4667 0.799966 15.4667C0.652716 15.4667 0.53331 15.3474 0.53331 15.2001V13.8669C0.534185 13.131 1.13062 12.5347 1.86665 12.5338H2.93327ZM3.73327 10.6673C3.73327 11.4036 3.1363 12.0005 2.39993 12.0005C1.66356 12.0005 1.06659 11.4036 1.06659 10.6673C1.06659 9.93099 1.66356 9.33409 2.39993 9.33409C3.13593 9.335 3.73236 9.93137 3.73327 10.6673ZM8.53325 12.5338C9.26924 12.5346 9.86568 13.131 9.86659 13.8669V15.2001C9.86659 15.3474 9.74721 15.4667 9.59993 15.4667C9.45265 15.4667 9.33328 15.3474 9.33328 15.2001V13.8669C9.33328 13.7197 9.2139 13.6003 9.06662 13.6003C8.91934 13.6003 8.79996 13.7197 8.79996 13.8669V15.2001C8.80084 15.2912 8.81743 15.3814 8.84903 15.4667H7.15091C7.1825 15.3814 7.1991 15.2911 7.19997 15.2001V13.8669C7.19997 13.7197 7.0806 13.6003 6.93332 13.6003C6.78604 13.6003 6.66666 13.7197 6.66666 13.8669V15.2001C6.66666 15.3474 6.54726 15.4667 6.40001 15.4667C6.25273 15.4667 6.13335 15.3474 6.13335 15.2001V13.8669C6.13423 13.131 6.73066 12.5347 7.46669 12.5338H8.53325ZM9.33324 10.6673C9.33324 11.4036 8.73628 12.0005 7.99991 12.0005C7.26353 12.0005 6.66657 11.4036 6.66657 10.6673C6.66657 9.93099 7.26353 9.33409 7.99991 9.33409C8.7359 9.335 9.33234 9.93137 9.33324 10.6673ZM12.2665 10.6673C12.2665 9.93099 12.8635 9.33409 13.5999 9.33409C14.3363 9.33409 14.9332 9.93099 14.9332 10.6673C14.9332 11.4036 14.3363 12.0005 13.5999 12.0005C12.8639 11.9996 12.2675 11.4032 12.2665 10.6673ZM15.4665 15.2001C15.4665 15.3474 15.3471 15.4667 15.1999 15.4667C15.0526 15.4667 14.9332 15.3474 14.9332 15.2001V13.8669C14.9332 13.7196 14.8138 13.6003 14.6666 13.6003C14.5193 13.6003 14.3999 13.7197 14.3999 13.8669V15.2001C14.4008 15.2911 14.4174 15.3814 14.449 15.4667H12.7509C12.7824 15.3813 12.799 15.2911 12.7999 15.2001V13.8669C12.7999 13.7196 12.6805 13.6003 12.5333 13.6003C12.386 13.6003 12.2666 13.7197 12.2666 13.8669V15.2001C12.2666 15.3474 12.1472 15.4667 12 15.4667C11.8527 15.4667 11.7333 15.3474 11.7333 15.2001V13.8669C11.7342 13.131 12.3306 12.5346 13.0666 12.5337H14.1333C14.8693 12.5346 15.4657 13.131 15.4666 13.8669V15.2001H15.4665Z" fill="#2E3034" fill-opacity="0.4"/>
</svg>
