<svg width="20" height="20" viewBox="0 0 20 20" fill="none" xmlns="http://www.w3.org/2000/svg">
<path d="M19.707 18.0767H19.3529V17.0754C19.3529 16.9136 19.2216 16.7824 19.0599 16.7824H18.0586V15.7811C18.0586 15.6194 17.9276 15.4882 17.7657 15.4882H17.4117V9.07688H17.7657C17.9276 9.07688 18.0586 8.94566 18.0586 8.78391V7.78263H19.0599C19.2218 7.78263 19.3529 7.65141 19.3529 7.48966V6.19541C19.3529 6.03367 19.2218 5.90244 19.0599 5.90244H18.5043L10.1668 0.130196C10.0665 0.0607681 9.93362 0.0607681 9.83322 0.130196L1.49582 5.90244H0.940094C0.778351 5.90244 0.647125 6.03352 0.647125 6.19541V7.48966C0.647125 7.65141 0.778351 7.78263 0.940094 7.78263H1.94138V8.78391C1.94138 8.94566 2.0726 9.07688 2.23434 9.07688H2.5885V15.4882H2.23434C2.0726 15.4882 1.94138 15.6192 1.94138 15.7811V16.7824H0.940094C0.778351 16.7824 0.647125 16.9136 0.647125 17.0754V18.0767H0.292969C0.131073 18.0767 0 18.2077 0 18.3696V19.6637C0 19.8256 0.131073 19.9567 0.292969 19.9567H19.707C19.8689 19.9567 20 19.8256 20 19.6637V18.3696C20 18.2079 19.8689 18.0767 19.707 18.0767ZM17.4727 16.7824H14.823V16.0741H17.4727V16.7824ZM15.47 15.4882V9.07688H16.8256V15.4882H15.47ZM17.4727 8.49094H14.823V7.78263H17.4727V8.49094ZM14.53 9.07688H14.884V15.4882H14.53C14.3681 15.4882 14.2371 15.6192 14.2371 15.7811V16.7824H11.9109V15.7811C11.9109 15.6192 11.7796 15.4882 11.6179 15.4882H11.2637V9.07688H11.6179C11.7796 9.07688 11.9109 8.94566 11.9109 8.78391V7.78263H14.2371V8.78391C14.2371 8.94566 14.3681 9.07688 14.53 9.07688ZM8.67523 7.78263H11.3249V8.49094H8.67523V7.78263ZM9.3222 9.07688H10.6778V15.4882H9.3222V9.07688ZM11.3249 16.0741V16.7824H8.67523V16.0741H11.3249ZM1.23306 6.48838H1.58737H1.58768H1.58783H6.34567C6.50757 6.48838 6.63864 6.35715 6.63864 6.19541C6.63864 6.03352 6.50757 5.90244 6.34567 5.90244H2.52518L10 0.727425L17.475 5.90244H7.51755C7.3558 5.90244 7.22458 6.03352 7.22458 6.19541C7.22458 6.35715 7.3558 6.48838 7.51755 6.48838H18.4088H18.4097H18.7669V7.19669H1.23306V6.48838ZM2.52731 7.78263H5.17715V8.49094H2.52731V7.78263ZM4.53003 9.07688V15.4882H3.17444V9.07688H4.53003ZM2.52731 16.0741H5.17715V16.7824H2.52731V16.0741ZM5.47012 15.4882H5.11597V9.07688H5.47012C5.63187 9.07688 5.76309 8.94566 5.76309 8.78391V7.78263H8.08929V8.78391C8.08929 8.94566 8.22037 9.07688 8.38226 9.07688H8.73627V15.4882H8.38226C8.22037 15.4882 8.08929 15.6192 8.08929 15.7811V16.7824H5.76309V15.7811C5.76309 15.6192 5.63187 15.4882 5.47012 15.4882ZM1.23306 17.3684H18.7669V18.0767H1.23306V17.3684ZM19.4141 19.3709H0.585938V18.6626H19.4141V19.3709Z" fill="#2E3034" fill-opacity="0.4"/>
</svg>
