<svg width="20" height="20" viewBox="0 0 20 20" fill="none" xmlns="http://www.w3.org/2000/svg">
<path d="M17.5984 0.400391H2.39844C1.29564 0.400391 0.398438 1.29759 0.398438 2.40039V17.6004C0.398438 18.7032 1.29564 19.6004 2.39844 19.6004H17.5984C18.7012 19.6004 19.5984 18.7032 19.5984 17.6004V2.40039C19.5984 1.29759 18.7012 0.400391 17.5984 0.400391ZM18.7984 17.6004C18.7984 18.262 18.26 18.8004 17.5984 18.8004H2.39844C1.73684 18.8004 1.19844 18.262 1.19844 17.6004V2.40039C1.19844 1.73879 1.73684 1.20039 2.39844 1.20039H17.5984C18.26 1.20039 18.7984 1.73879 18.7984 2.40039V17.6004Z" fill="#E4E4E7" fill-opacity="0.6"/>
<path d="M3.19922 16.8016H6.39922V7.60156H3.19922V16.8016ZM3.99922 8.40156H5.59922V16.0016H3.99922V8.40156Z" fill="#E4E4E7" fill-opacity="0.6"/>
<path d="M4.79688 2.80078C3.69408 2.80078 2.79688 3.69798 2.79688 4.80078C2.79688 5.90358 3.69408 6.80078 4.79688 6.80078C5.89968 6.80078 6.79688 5.90358 6.79688 4.80078C6.79688 3.69798 5.89968 2.80078 4.79688 2.80078ZM4.79688 6.00078C4.13528 6.00078 3.59688 5.46238 3.59688 4.80078C3.59688 4.13918 4.13528 3.60078 4.79688 3.60078C5.45848 3.60078 5.99688 4.13918 5.99688 4.80078C5.99688 5.46238 5.45848 6.00078 4.79688 6.00078Z" fill="#E4E4E7" fill-opacity="0.6"/>
<path d="M12.3977 7.60156C11.8525 7.60156 11.3165 7.72476 10.7977 7.96796V7.60156H7.59766V16.8016H10.7977V12.4016C10.7977 11.5192 11.5153 10.8016 12.3977 10.8016C13.2801 10.8016 13.9977 11.5192 13.9977 12.4016V16.8016H17.1977V12.4016C17.1977 9.75476 15.0445 7.60156 12.3977 7.60156ZM16.3977 16.0016H14.7977V12.4016C14.7977 11.078 13.7213 10.0016 12.3977 10.0016C11.0741 10.0016 9.99766 11.078 9.99766 12.4016V16.0016H8.39766V8.40156H9.99766V9.40996L10.6221 8.98716C11.1961 8.59876 11.7933 8.40156 12.3977 8.40156C14.6033 8.40156 16.3977 10.196 16.3977 12.4016V16.0016Z" fill="#E4E4E7" fill-opacity="0.6"/>
</svg>
