<svg width="16" height="16" viewBox="0 0 16 16" fill="none" xmlns="http://www.w3.org/2000/svg">
<path d="M15.7656 14.3988H15.4823V13.5978C15.4823 13.4684 15.3773 13.3634 15.2479 13.3634H14.4469V12.5624C14.4469 12.433 14.342 12.328 14.2125 12.328H13.9293V7.19901H14.2125C14.342 7.19901 14.4469 7.09402 14.4469 6.96463V6.1636H15.2479C15.3774 6.1636 15.4823 6.05862 15.4823 5.92923V4.89383C15.4823 4.76443 15.3774 4.65945 15.2479 4.65945H14.8035L8.13342 0.0416565C8.05322 -0.0138855 7.9469 -0.0138855 7.86658 0.0416565L1.19666 4.65945H0.752075C0.622681 4.65945 0.5177 4.76431 0.5177 4.89383V5.92923C0.5177 6.05862 0.622681 6.1636 0.752075 6.1636H1.5531V6.96463C1.5531 7.09402 1.65808 7.19901 1.78748 7.19901H2.0708V12.328H1.78748C1.65808 12.328 1.5531 12.4329 1.5531 12.5624V13.3634H0.752075C0.622681 13.3634 0.5177 13.4684 0.5177 13.5978V14.3988H0.234375C0.104858 14.3988 0 14.5037 0 14.6332V15.6685C0 15.798 0.104858 15.9029 0.234375 15.9029H15.7656C15.8951 15.9029 16 15.798 16 15.6685V14.6332C16 14.5038 15.8951 14.3988 15.7656 14.3988ZM13.9781 13.3634H11.8584V12.7968H13.9781V13.3634ZM12.376 12.328V7.19901H13.4604V12.328H12.376ZM13.9781 6.73026H11.8584V6.1636H13.9781V6.73026ZM11.624 7.19901H11.9072V12.328H11.624C11.4945 12.328 11.3896 12.4329 11.3896 12.5624V13.3634H9.52869V12.5624C9.52869 12.4329 9.42371 12.328 9.29431 12.328H9.01099V7.19901H9.29431C9.42371 7.19901 9.52869 7.09402 9.52869 6.96463V6.1636H11.3896V6.96463C11.3896 7.09402 11.4945 7.19901 11.624 7.19901ZM6.94019 6.1636H9.05994V6.73026H6.94019V6.1636ZM7.45776 7.19901H8.54224V12.328H7.45776V7.19901ZM9.05994 12.7968V13.3634H6.94019V12.7968H9.05994ZM0.98645 5.1282H1.2699H1.27014H1.27026H5.07654C5.20605 5.1282 5.31091 5.02322 5.31091 4.89383C5.31091 4.76431 5.20605 4.65945 5.07654 4.65945H2.02014L8 0.51944L13.98 4.65945H6.01404C5.88464 4.65945 5.77966 4.76431 5.77966 4.89383C5.77966 5.02322 5.88464 5.1282 6.01404 5.1282H14.7271H14.7278H15.0135V5.69485H0.98645V5.1282ZM2.02185 6.1636H4.14172V6.73026H2.02185V6.1636ZM3.62402 7.19901V12.328H2.53955V7.19901H3.62402ZM2.02185 12.7968H4.14172V13.3634H2.02185V12.7968ZM4.3761 12.328H4.09277V7.19901H4.3761C4.50549 7.19901 4.61047 7.09402 4.61047 6.96463V6.1636H6.47144V6.96463C6.47144 7.09402 6.57629 7.19901 6.70581 7.19901H6.98901V12.328H6.70581C6.57629 12.328 6.47144 12.4329 6.47144 12.5624V13.3634H4.61047V12.5624C4.61047 12.4329 4.50549 12.328 4.3761 12.328ZM0.98645 13.8322H15.0135V14.3988H0.98645V13.8322ZM15.5312 15.4342H0.46875V14.8676H15.5312V15.4342Z" fill="#2E3034" fill-opacity="0.4"/>
</svg>
