<svg width="18" height="20" viewBox="0 0 18 20" fill="none" xmlns="http://www.w3.org/2000/svg">
<path d="M16.6367 19.2188H16.2735V7.41984C16.2735 7.2041 16.0986 7.02922 15.8829 7.02922H13.3379V2.18582C13.3379 1.97008 13.163 1.7952 12.9473 1.7952H12.115V0.390625C12.115 0.174883 11.9401 0 11.7244 0H5.585C5.36926 0 5.19437 0.174883 5.19437 0.390625V1.7952H4.36215C4.14641 1.7952 3.97152 1.97008 3.97152 2.18582V9.70383H1.82824C1.6125 9.70383 1.43762 9.87871 1.43762 10.0945V19.2188H0.390625C0.174883 19.2188 0 19.3936 0 19.6094C0 19.8251 0.174883 20 0.390625 20H16.6367C16.8525 20 17.0273 19.8251 17.0273 19.6094C17.0273 19.3936 16.8525 19.2188 16.6367 19.2188ZM5.97562 0.78125H11.3337V1.7952H5.97562V0.78125ZM2.21887 10.4851H3.97152V19.2188H2.21887V10.4851ZM4.75277 2.57645H12.5566V19.2188H10.6121V16.6415C10.6121 16.4257 10.4372 16.2509 10.2215 16.2509H7.08789C6.87215 16.2509 6.69726 16.4257 6.69726 16.6415V19.2188H4.75277V2.57645ZM7.47855 19.2188V17.0321H9.8309V19.2188H7.47855ZM13.3379 19.2188V7.81047H15.4923V19.2188H13.3379Z" fill="#2E3034" fill-opacity="0.4"/>
</svg>
