<svg width="16" height="16" viewBox="0 0 16 16" fill="none" xmlns="http://www.w3.org/2000/svg">
<g clip-path="url(#clip0_185_3506)">
<rect width="16" height="16" fill="white"/>
<path d="M3.25987 10.6357C4.83799 12.5222 6.7377 14.0075 8.90595 15.0584C9.73148 15.4496 10.8355 15.9138 12.0655 15.9934C12.1418 15.9967 12.2147 16 12.2909 16C13.1165 16 13.7796 15.7149 14.32 15.1281C14.3233 15.1247 14.3299 15.1181 14.3332 15.1115C14.5255 14.8794 14.7443 14.6705 14.9731 14.4484C15.1289 14.2992 15.288 14.1434 15.4406 13.9843C16.1467 13.2482 16.1467 12.3133 15.4339 11.6005L13.4414 9.60796C13.1032 9.25653 12.6987 9.07087 12.2744 9.07087C11.85 9.07087 11.4422 9.25653 11.0941 9.60464L9.9072 10.7915C9.79779 10.7286 9.68506 10.6722 9.57897 10.6191C9.44636 10.5528 9.32369 10.4898 9.21428 10.4202C8.13347 9.73394 7.15212 8.83879 6.21387 7.68835C5.73977 7.08827 5.42149 6.58433 5.19936 6.07045C5.51101 5.78864 5.80276 5.49358 6.08457 5.20514C6.18403 5.10236 6.28681 4.99959 6.38958 4.89681C6.74764 4.53875 6.93994 4.12433 6.93994 3.70327C6.93994 3.28222 6.75096 2.8678 6.38958 2.50974L5.4016 1.52176C5.28556 1.40572 5.17616 1.293 5.06343 1.17696C4.84462 0.951513 4.61586 0.719436 4.39041 0.510568C4.04893 0.175715 3.64777 0 3.2234 0C2.80235 0 2.39787 0.175715 2.04313 0.513883L0.803176 1.75383C0.352285 2.20472 0.0970008 2.75176 0.0439548 3.385C-0.0190373 4.17737 0.126839 5.01948 0.504792 6.0373C1.08498 7.6121 1.96024 9.07418 3.25987 10.6357ZM0.852906 3.45462C0.892691 3.01368 1.06177 2.64567 1.38005 2.32739L2.61337 1.09407C2.80566 0.908413 3.01785 0.812267 3.2234 0.812267C3.42564 0.812267 3.63119 0.908413 3.82017 1.1007C4.0423 1.30626 4.25117 1.52176 4.47661 1.75052C4.58933 1.86656 4.70537 1.98259 4.82141 2.10195L5.80939 3.08993C6.01495 3.29548 6.12104 3.50435 6.12104 3.7099C6.12104 3.91546 6.01495 4.12433 5.80939 4.32988C5.70662 4.43266 5.60384 4.53875 5.50106 4.64152C5.19273 4.95317 4.90429 5.24824 4.58602 5.53005C4.57939 5.53668 4.57607 5.53999 4.56944 5.54662C4.29427 5.8218 4.33737 6.08371 4.40367 6.28264C4.40699 6.29258 4.4103 6.29921 4.41362 6.30916C4.6689 6.9225 5.02365 7.50601 5.57732 8.20224C6.57193 9.42893 7.61959 10.3804 8.77334 11.1131C8.9159 11.206 9.06841 11.2789 9.21097 11.3518C9.34358 11.4182 9.46625 11.4811 9.57566 11.5508C9.58892 11.5574 9.59886 11.564 9.61213 11.5707C9.72153 11.627 9.82763 11.6535 9.93372 11.6535C10.1989 11.6535 10.3713 11.4845 10.4277 11.4281L11.6677 10.1881C11.86 9.99586 12.0688 9.89308 12.2744 9.89308C12.5263 9.89308 12.7319 10.0489 12.8612 10.1881L14.8604 12.184C15.2582 12.5818 15.2549 13.0128 14.8504 13.4339C14.7112 13.5831 14.5653 13.7257 14.4095 13.8748C14.1774 14.1003 13.9354 14.3324 13.7166 14.5943C13.3353 15.0054 12.8811 15.1977 12.2943 15.1977C12.2379 15.1977 12.1782 15.1944 12.1219 15.191C11.0344 15.1214 10.0232 14.6971 9.26401 14.3357C7.20185 13.3378 5.39165 11.9221 3.88979 10.1252C2.65315 8.63655 1.821 7.25072 1.27064 5.76544C0.92916 4.85371 0.79986 4.12101 0.852906 3.45462Z" fill="#2E3034" fill-opacity="0.4"/>
</g>
<defs>
<clipPath id="clip0_185_3506">
<rect width="16" height="16" fill="white"/>
</clipPath>
</defs>
</svg>
