<svg width="22" height="20" viewBox="0 0 22 20" fill="none" xmlns="http://www.w3.org/2000/svg">
<path d="M10.9986 0C10.8672 0.000276159 10.7371 0.0264662 10.6157 0.0770719C10.4944 0.127678 10.3843 0.201706 10.2916 0.294922L5.15877 5.13477C5.15482 5.13796 5.15091 5.14122 5.14706 5.14453L5.1451 5.14648C5.05133 5.24024 4.99864 5.3674 4.99862 5.5C4.99862 5.63261 5.0513 5.75979 5.14506 5.85355C5.23883 5.94732 5.36601 6 5.49862 6H8.99862V14C8.99862 14.552 9.44662 15 9.99862 15H10.9986H11.9986C12.5506 15 12.9986 14.552 12.9986 14V6H16.4986C16.6312 6 16.7584 5.94732 16.8522 5.85355C16.9459 5.75979 16.9986 5.63261 16.9986 5.5C16.9986 5.3674 16.9459 5.24024 16.8521 5.14648L16.8209 5.11719L11.7154 0.302734C11.7046 0.292067 11.6935 0.281647 11.6822 0.271484C11.4971 0.097432 11.2527 0.000364937 10.9986 0ZM1.99862 18C1.86611 17.9981 1.73454 18.0226 1.61157 18.072C1.48861 18.1214 1.37669 18.1948 1.28232 18.2878C1.18795 18.3809 1.11301 18.4918 1.06186 18.614C1.01071 18.7363 0.984375 18.8675 0.984375 19C0.984375 19.1325 1.01071 19.2637 1.06186 19.386C1.11301 19.5082 1.18795 19.6191 1.28232 19.7122C1.37669 19.8052 1.48861 19.8786 1.61157 19.928C1.73454 19.9774 1.86611 20.0019 1.99862 20H19.9986C20.1311 20.0019 20.2627 19.9774 20.3857 19.928C20.5086 19.8786 20.6206 19.8052 20.7149 19.7122C20.8093 19.6191 20.8842 19.5082 20.9354 19.386C20.9865 19.2637 21.0129 19.1325 21.0129 19C21.0129 18.8675 20.9865 18.7363 20.9354 18.614C20.8842 18.4918 20.8093 18.3809 20.7149 18.2878C20.6206 18.1948 20.5086 18.1214 20.3857 18.072C20.2627 18.0226 20.1311 17.9981 19.9986 18H1.99862Z" fill="#018F6A"/>
</svg>
