<svg width="16" height="16" viewBox="0 0 16 16" fill="none" xmlns="http://www.w3.org/2000/svg">
<g clip-path="url(#clip0_185_3497)">
<rect width="16" height="16" fill="white"/>
<path d="M8.00041 9.01221C3.193 9.01221 0.54541 11.2865 0.54541 15.4161C0.54541 15.7386 0.806816 16 1.12935 16H14.8714C15.194 16 15.4554 15.7386 15.4554 15.4161C15.4554 11.2867 12.8078 9.01221 8.00041 9.01221ZM1.73454 14.8322C1.96422 11.7445 4.06932 10.1801 8.00041 10.1801C11.9315 10.1801 14.0366 11.7445 14.2665 14.8322H1.73454Z" fill="#2E3034" fill-opacity="0.4"/>
<path d="M7.99994 0C5.79166 0 4.12646 1.69869 4.12646 3.95116C4.12646 6.26959 5.86409 8.15553 7.99994 8.15553C10.1358 8.15553 11.8734 6.26959 11.8734 3.95134C11.8734 1.69869 10.2082 0 7.99994 0ZM7.99994 6.98784C6.50797 6.98784 5.29434 5.62569 5.29434 3.95134C5.29434 2.3385 6.43225 1.16788 7.99994 1.16788C9.54254 1.16788 10.7055 2.36438 10.7055 3.95134C10.7055 5.62569 9.49191 6.98784 7.99994 6.98784Z" fill="#2E3034" fill-opacity="0.4"/>
</g>
<defs>
<clipPath id="clip0_185_3497">
<rect width="16" height="16" fill="white"/>
</clipPath>
</defs>
</svg>
