<svg width="150" height="50" viewBox="0 0 150 50" fill="none" xmlns="http://www.w3.org/2000/svg">
<path d="M19.8267 47.1567L13.7262 35.5062L4.50607 37.7947L0 50H40L35.4939 37.7947L26.2045 35.5062L19.8267 47.1567Z" fill="#121212"/>
<path fill-rule="evenodd" clip-rule="evenodd" d="M8.80416 4.64632L5.54593 10.4716L7.90295 12.6907V13.3842C11.2305 16.8516 28.9081 16.9209 32.0971 13.3842V12.6907L34.7314 10.4716L31.3345 4.64632L19.9653 0L8.80416 4.64632ZM19.9653 2.63523L29.3241 6.03329L33.2062 10.4716L19.9653 5.4785V2.63523ZM19.2028 9.01526L20.104 6.58807C20.3351 7.30467 20.825 8.79334 20.9359 9.01526H23.7782L21.4905 10.6103L22.1144 13.2455L20.104 11.7892L18.0243 13.2455L18.7175 10.6103L16.4991 9.01526H19.2028Z" fill="#121212"/>
<path fill-rule="evenodd" clip-rule="evenodd" d="M10.1906 15.6727V18.6546L9.2201 18.2386L8.31889 19.3481L8.80416 24.0638L9.4974 25.1734H10.1906V29.0569C10.1906 29.2233 14.766 34.0268 17.0537 36.4078H23.0849L30.0173 29.1956V25.1734H30.7799L31.5425 24.1331L31.8891 19.4175L31.1265 18.2386L30.156 18.8627V15.6727C27.7296 18.6546 13.8648 19.1401 10.1906 15.6727ZM19.8267 35.9223V20.2497C23.1542 20.3883 27.9376 19.2094 28.9081 18.2386V29.0569L22.8076 35.9223H19.8267Z" fill="#121212"/>
<path fill-rule="evenodd" clip-rule="evenodd" d="M22.0451 38.1415H18.0936L19.2721 40.2219L18.3709 43.1345L19.8102 45.6385C19.7916 45.6589 19.7971 45.6602 19.824 45.6666L19.8267 45.6672L19.9653 45.9085L21.6291 42.9958L20.4506 40.2219L22.0451 38.1415ZM19.9653 45.8391V38.6269H21.6291L20.4506 40.2219L21.6031 42.9265C20.7031 44.8469 19.9433 45.5024 19.8297 45.6182L19.9653 45.8391Z" fill="#121212"/>
<path d="M59.372 31.216C58.376 31.216 57.452 31 56.6 30.568C55.76 30.124 55.082 29.458 54.566 28.57C54.05 27.682 53.792 26.572 53.792 25.24C53.792 24.256 53.942 23.386 54.242 22.63C54.554 21.862 54.974 21.214 55.502 20.686C56.042 20.158 56.648 19.762 57.32 19.498C58.004 19.222 58.712 19.084 59.444 19.084C60.224 19.084 60.92 19.24 61.532 19.552C62.156 19.852 62.672 20.212 63.08 20.632L61.46 22.612C61.172 22.36 60.872 22.156 60.56 22C60.26 21.832 59.912 21.748 59.516 21.748C59.06 21.748 58.634 21.886 58.238 22.162C57.854 22.426 57.542 22.81 57.302 23.314C57.074 23.818 56.96 24.424 56.96 25.132C56.96 26.224 57.188 27.07 57.644 27.67C58.112 28.258 58.724 28.552 59.48 28.552C59.936 28.552 60.338 28.45 60.686 28.246C61.046 28.042 61.352 27.808 61.604 27.544L63.224 29.488C62.732 30.064 62.156 30.496 61.496 30.784C60.836 31.072 60.128 31.216 59.372 31.216ZM68.4464 31V19.3H71.5424V23.656H75.0344V19.3H78.1304V31H75.0344V26.356H71.5424V31H68.4464ZM89.2514 31.216C88.1714 31.216 87.2234 30.976 86.4074 30.496C85.5914 30.004 84.9554 29.302 84.4994 28.39C84.0434 27.478 83.8154 26.38 83.8154 25.096C83.8154 23.812 84.0434 22.726 84.4994 21.838C84.9554 20.938 85.5914 20.254 86.4074 19.786C87.2234 19.318 88.1714 19.084 89.2514 19.084C90.3314 19.084 91.2794 19.318 92.0954 19.786C92.9114 20.254 93.5474 20.938 94.0034 21.838C94.4594 22.726 94.6874 23.812 94.6874 25.096C94.6874 26.38 94.4594 27.478 94.0034 28.39C93.5474 29.302 92.9114 30.004 92.0954 30.496C91.2794 30.976 90.3314 31.216 89.2514 31.216ZM89.2514 28.552C89.9594 28.552 90.5114 28.24 90.9074 27.616C91.3154 26.992 91.5194 26.152 91.5194 25.096C91.5194 24.028 91.3154 23.206 90.9074 22.63C90.5114 22.042 89.9594 21.748 89.2514 21.748C88.5554 21.748 88.0034 22.042 87.5954 22.63C87.1874 23.206 86.9834 24.028 86.9834 25.096C86.9834 26.152 87.1874 26.992 87.5954 27.616C88.0034 28.24 88.5554 28.552 89.2514 28.552ZM100.386 31V19.3H103.482V23.656H103.554L106.506 19.3H109.89L106.398 24.052L110.574 31H107.19L104.598 26.5L103.482 28.084V31H100.386ZM115.292 31V19.3H118.388V31H115.292ZM124.591 31V19.3H128.047C129.235 19.3 130.279 19.498 131.179 19.894C132.091 20.278 132.799 20.896 133.303 21.748C133.807 22.6 134.059 23.716 134.059 25.096C134.059 26.476 133.807 27.604 133.303 28.48C132.799 29.344 132.109 29.98 131.233 30.388C130.357 30.796 129.355 31 128.227 31H124.591ZM127.687 28.516H127.867C128.431 28.516 128.941 28.42 129.397 28.228C129.853 28.036 130.213 27.694 130.477 27.202C130.753 26.71 130.891 26.008 130.891 25.096C130.891 24.184 130.753 23.494 130.477 23.026C130.213 22.546 129.853 22.222 129.397 22.054C128.941 21.874 128.431 21.784 127.867 21.784H127.687V28.516ZM139.743 31V19.3H144.171C145.011 19.3 145.785 19.414 146.493 19.642C147.201 19.858 147.771 20.242 148.203 20.794C148.635 21.346 148.851 22.108 148.851 23.08C148.851 23.92 148.677 24.616 148.329 25.168C147.981 25.72 147.525 26.152 146.961 26.464L149.499 31H146.043L144.027 27.076H142.839V31H139.743ZM142.839 24.628H143.955C145.203 24.628 145.827 24.112 145.827 23.08C145.827 22.576 145.665 22.228 145.341 22.036C145.029 21.844 144.567 21.748 143.955 21.748H142.839V24.628Z" fill="#121212"/>
</svg>
