<svg width="171" height="67" viewBox="0 0 171 67" fill="none" xmlns="http://www.w3.org/2000/svg">
<path d="M26.766 63.19L18.5303 47.5784L6.08319 50.6449L0 67H54L47.9168 50.6449L35.3761 47.5784L26.766 63.19Z" fill="#121212"/>
<path fill-rule="evenodd" clip-rule="evenodd" d="M11.8856 6.22607L7.487 14.0319L10.669 17.0055V17.9348C15.1612 22.5811 39.026 22.6741 43.331 17.9348V17.0055L46.8874 14.0319L42.3016 6.22607L26.9532 0L11.8856 6.22607ZM26.9532 3.53121L39.5875 8.0846L44.8284 14.0319L26.9532 7.34119V3.53121ZM25.9237 12.0804L27.1404 8.82802C27.4523 9.78826 28.1137 11.7831 28.2634 12.0804H32.1005L29.0121 14.2178L29.8544 17.749L27.1404 15.7975L24.3328 17.749L25.2686 14.2178L22.2738 12.0804H25.9237Z" fill="#121212"/>
<path fill-rule="evenodd" clip-rule="evenodd" d="M13.7574 21.0014V24.9972L12.4471 24.4397L11.2305 25.9265L11.8856 32.2455L12.8215 33.7323H13.7574V38.9362C13.7574 39.1592 19.9341 45.5959 23.0225 48.7864H31.1646L40.5234 39.1221V33.7323H41.5529L42.5823 32.3384L43.0503 26.0194L42.0208 24.4397L40.7106 25.276V21.0014C37.435 24.9972 18.7175 25.6477 13.7574 21.0014ZM26.766 48.1359V27.1345C31.2582 27.3204 37.7158 25.7406 39.026 24.4397V38.9362L30.7903 48.1359H26.766Z" fill="#121212"/>
<path fill-rule="evenodd" clip-rule="evenodd" d="M29.7608 51.1096H24.4263L26.0173 53.8974L24.8007 57.8003L26.7437 61.1556C26.7186 61.1829 26.7261 61.1847 26.7624 61.1932L26.766 61.1941L26.9532 61.5173L29.1993 57.6144L27.6083 53.8974L29.7608 51.1096ZM26.9532 61.4244V51.7601H29.1993L27.6083 53.8974L29.1642 57.5215C27.9491 60.0948 26.9235 60.9732 26.7702 61.1283L26.9532 61.4244Z" fill="#121212"/>
<path d="M80.372 39.216C79.628 39.216 78.914 39.096 78.23 38.856C77.558 38.604 76.964 38.232 76.448 37.74C75.944 37.236 75.542 36.612 75.242 35.868C74.942 35.112 74.792 34.236 74.792 33.24C74.792 32.256 74.948 31.386 75.26 30.63C75.572 29.862 75.986 29.22 76.502 28.704C77.03 28.176 77.63 27.774 78.302 27.498C78.986 27.222 79.7 27.084 80.444 27.084C81.224 27.084 81.92 27.24 82.532 27.552C83.144 27.852 83.66 28.212 84.08 28.632L82.46 30.612C82.172 30.36 81.872 30.156 81.56 30C81.26 29.832 80.912 29.748 80.516 29.748C80.168 29.748 79.838 29.826 79.526 29.982C79.226 30.138 78.956 30.36 78.716 30.648C78.488 30.936 78.302 31.29 78.158 31.71C78.026 32.13 77.96 32.604 77.96 33.132C77.96 34.236 78.188 35.082 78.644 35.67C79.112 36.258 79.724 36.552 80.48 36.552C80.936 36.552 81.338 36.456 81.686 36.264C82.046 36.06 82.352 35.82 82.604 35.544L84.224 37.488C83.72 38.064 83.138 38.496 82.478 38.784C81.83 39.072 81.128 39.216 80.372 39.216ZM89.4464 39V27.3H92.5424V31.656H96.0344V27.3H99.1304V39H96.0344V34.356H92.5424V39H89.4464ZM110.251 39.216C109.435 39.216 108.691 39.078 108.019 38.802C107.359 38.526 106.789 38.13 106.309 37.614C105.841 37.086 105.475 36.444 105.211 35.688C104.947 34.92 104.815 34.056 104.815 33.096C104.815 32.136 104.947 31.284 105.211 30.54C105.475 29.784 105.841 29.154 106.309 28.65C106.789 28.134 107.359 27.744 108.019 27.48C108.691 27.216 109.435 27.084 110.251 27.084C111.055 27.084 111.793 27.216 112.465 27.48C113.137 27.744 113.707 28.134 114.175 28.65C114.655 29.166 115.027 29.796 115.291 30.54C115.555 31.284 115.687 32.136 115.687 33.096C115.687 34.056 115.555 34.92 115.291 35.688C115.027 36.444 114.655 37.086 114.175 37.614C113.707 38.13 113.137 38.526 112.465 38.802C111.793 39.078 111.055 39.216 110.251 39.216ZM110.251 36.552C110.959 36.552 111.511 36.246 111.907 35.634C112.315 35.01 112.519 34.164 112.519 33.096C112.519 32.028 112.315 31.206 111.907 30.63C111.511 30.042 110.959 29.748 110.251 29.748C109.543 29.748 108.985 30.042 108.577 30.63C108.181 31.206 107.983 32.028 107.983 33.096C107.983 34.164 108.181 35.01 108.577 35.634C108.985 36.246 109.543 36.552 110.251 36.552ZM121.386 39V27.3H124.482V31.656H124.554L127.506 27.3H130.89L127.398 32.052L131.574 39H128.19L125.598 34.5L124.482 36.084V39H121.386ZM136.292 39V27.3H139.388V39H136.292ZM145.591 39V27.3H149.047C149.935 27.3 150.745 27.408 151.477 27.624C152.221 27.84 152.857 28.182 153.385 28.65C153.913 29.118 154.321 29.718 154.609 30.45C154.909 31.182 155.059 32.064 155.059 33.096C155.059 34.128 154.915 35.016 154.627 35.76C154.339 36.504 153.931 37.116 153.403 37.596C152.887 38.076 152.269 38.43 151.549 38.658C150.841 38.886 150.067 39 149.227 39H145.591ZM148.687 36.516H148.867C149.287 36.516 149.683 36.468 150.055 36.372C150.427 36.264 150.745 36.084 151.009 35.832C151.285 35.58 151.501 35.232 151.657 34.788C151.813 34.344 151.891 33.78 151.891 33.096C151.891 32.412 151.813 31.854 151.657 31.422C151.501 30.99 151.285 30.654 151.009 30.414C150.745 30.174 150.427 30.012 150.055 29.928C149.683 29.832 149.287 29.784 148.867 29.784H148.687V36.516ZM160.743 39V27.3H165.171C165.795 27.3 166.389 27.36 166.953 27.48C167.529 27.6 168.027 27.804 168.447 28.092C168.879 28.38 169.221 28.77 169.473 29.262C169.725 29.742 169.851 30.348 169.851 31.08C169.851 31.92 169.677 32.616 169.329 33.168C168.993 33.72 168.537 34.152 167.961 34.464L170.499 39H167.043L165.027 35.076H163.839V39H160.743ZM163.839 32.628H164.955C166.203 32.628 166.827 32.112 166.827 31.08C166.827 30.576 166.665 30.228 166.341 30.036C166.029 29.844 165.567 29.748 164.955 29.748H163.839V32.628Z" fill="#121212"/>
</svg>
