<svg width="512" height="512" viewBox="0 0 512 512" fill="none" xmlns="http://www.w3.org/2000/svg">
<path d="M243.632 313.364C243.181 312.913 242.932 312.313 242.932 311.676V254.587C242.932 250.444 239.574 247.087 235.432 247.087C231.29 247.087 227.932 250.444 227.932 254.587V311.676C227.932 316.321 229.741 320.687 233.025 323.972L257.046 347.993C260.33 351.277 264.697 353.086 269.341 353.086H291.666C295.808 353.086 299.166 349.729 299.166 345.586C299.166 341.443 295.808 338.086 291.666 338.086H269.341C268.703 338.086 268.103 337.838 267.652 337.386L243.632 313.364Z" fill="#FBFBFB"/>
<path d="M444.86 393.44C441.571 390.923 436.864 391.546 434.345 394.836C425.027 407.005 414.467 418.102 402.917 428.005V399.312C402.917 394.667 401.108 390.301 397.824 387.016L353.987 343.178C350.703 339.895 346.337 338.086 341.692 338.086H334.334C330.192 338.086 326.834 341.443 326.834 345.586C326.834 349.729 330.192 353.086 334.334 353.086H341.692C342.331 353.086 342.93 353.334 343.381 353.785L387.218 397.623C387.669 398.074 387.918 398.674 387.918 399.311V439.792C374.783 449.206 360.62 457.176 345.674 463.478C341.858 465.087 340.068 469.486 341.677 473.303C342.885 476.168 345.665 477.891 348.591 477.891C349.562 477.891 350.55 477.701 351.502 477.3C388.783 461.58 421.548 436.218 446.254 403.954C448.773 400.667 448.148 395.958 444.86 393.44Z" fill="#FBFBFB"/>
<path d="M315.856 473.569C298.01 478.193 279.532 480.538 260.934 480.538C147.366 480.538 53.439 393.898 43.528 281.796C46.264 282.243 49.067 282.485 51.928 282.485C76.609 282.485 97.309 265.172 102.557 242.056H108.356C112.498 242.056 115.856 238.699 115.856 234.556C115.856 230.413 112.498 227.056 108.356 227.056H103.732C102.705 211.72 94.958 197.68 82.488 188.593C79.611 179.395 72.684 171.975 63.807 168.413C72.842 149.475 84.55 132.001 98.46 116.507L111.718 153.261C114.197 160.133 120.77 164.749 128.074 164.749H195.646C196.284 164.749 196.884 164.997 197.335 165.449L227.23 195.344C227.674 195.788 227.929 196.404 227.929 197.032V212.967C227.929 217.11 231.287 220.467 235.429 220.467C239.571 220.467 242.929 217.11 242.929 212.967V197.032C242.929 192.387 241.12 188.02 237.836 184.736L207.941 154.841C204.657 151.557 200.29 149.748 195.646 149.748H128.074C127.071 149.748 126.168 149.113 125.827 148.17L110.08 104.517C125.309 89.945 142.645 77.532 161.602 67.827C165.289 65.939 166.748 61.421 164.86 57.733C162.972 54.045 158.453 52.587 154.766 54.475C107.706 78.567 69.96 118.237 48.233 166.336C35.535 167.802 25.074 176.72 21.362 188.597C7.963 198.373 0 213.907 0 230.556C0 250.606 11.429 268.025 28.108 276.675C35.599 399.598 137.394 495.537 260.935 495.537C280.802 495.537 300.546 493.031 319.62 488.088C323.63 487.049 326.038 482.956 324.999 478.946C323.959 474.937 319.865 472.523 315.856 473.569ZM88.3 224.215C85.26 221.221 81.86 218.599 78.177 216.423C79.746 214.178 81.042 211.728 81.999 209.114C85.192 213.588 87.35 218.74 88.3 224.215ZM51.929 181.118C61.309 181.118 68.941 188.75 68.941 198.131C68.941 207.512 61.309 215.144 51.929 215.144C42.549 215.144 34.917 207.512 34.917 198.131C34.917 188.75 42.548 181.118 51.929 181.118ZM25.659 216.392C21.973 218.55 18.594 221.148 15.574 224.114C16.534 218.685 18.692 213.572 21.862 209.125C22.815 211.723 24.101 214.159 25.659 216.392ZM18.337 245.867C22.251 237.269 29.263 230.53 38.045 226.972C42.247 229.003 46.957 230.143 51.929 230.143C56.897 230.143 61.604 229.005 65.804 226.977C74.489 230.513 81.61 237.343 85.518 245.873C79.687 258.61 66.829 267.485 51.929 267.485C37.027 267.485 24.167 258.607 18.337 245.867Z" fill="#FBFBFB"/>
<path d="M166.264 429.604C190.235 429.604 210.454 413.274 216.407 391.157C216.545 391.165 216.681 391.178 216.82 391.178H222.82C226.962 391.178 230.32 387.821 230.32 383.678C230.32 379.535 226.962 376.178 222.82 376.178H218.146C217.685 360.07 209.835 345.194 196.825 335.713C192.757 322.705 180.595 313.237 166.264 313.237C151.932 313.237 139.77 322.705 135.702 335.714C122.313 345.481 114.335 361.081 114.335 377.674C114.335 406.309 137.63 429.604 166.264 429.604ZM140.016 363.543C136.334 365.721 132.933 368.347 129.893 371.343C130.845 365.887 133.017 360.738 136.204 356.26C137.159 358.865 138.451 361.306 140.016 363.543ZM166.264 414.604C151.364 414.604 138.507 405.729 132.675 392.993C136.579 384.48 143.706 377.627 152.38 374.092C156.582 376.123 161.292 377.262 166.264 377.262C171.232 377.262 175.938 376.125 180.138 374.096C188.823 377.632 195.945 384.462 199.853 392.992C194.021 405.729 181.164 414.604 166.264 414.604ZM202.632 371.318C199.594 368.329 196.195 365.711 192.515 363.537C194.083 361.293 195.377 358.845 196.334 356.234C199.524 360.703 201.681 365.85 202.632 371.318ZM166.264 328.238C175.644 328.238 183.276 335.87 183.276 345.251C183.276 354.631 175.644 362.263 166.264 362.263C156.883 362.263 149.251 354.631 149.251 345.251C149.251 335.87 156.883 328.238 166.264 328.238Z" fill="#FBFBFB"/>
<path d="M512 155.52C512 138.839 504.046 123.332 490.632 113.557C486.564 100.549 474.402 91.082 460.071 91.082C449.003 91.082 439.23 96.73 433.479 105.294C410.778 80.375 382.752 60.453 351.824 47.354C349.177 44.232 346.147 41.402 342.765 38.937C338.697 25.929 326.535 16.462 312.204 16.462C301.292 16.462 291.642 21.954 285.86 30.316C277.612 29.441 269.252 28.972 260.934 28.972C235.226 28.972 209.956 33.131 185.826 41.333C181.904 42.666 179.805 46.926 181.138 50.848C182.199 53.97 185.115 55.936 188.239 55.936C189.039 55.936 189.853 55.807 190.653 55.535C213.226 47.863 236.872 43.972 260.934 43.972C265.699 43.972 270.479 44.137 275.242 44.444C265.745 54.069 260.275 67.102 260.275 80.9C260.275 107.023 279.667 128.692 304.809 132.294C304.745 132.688 304.703 133.088 304.703 133.5V139.5C304.703 143.643 308.061 147 312.203 147C316.345 147 319.703 143.643 319.703 139.5V133.5C319.703 133.088 319.661 132.687 319.597 132.294C344.74 128.693 364.131 107.023 364.131 80.9C364.131 76.891 363.652 72.955 362.769 69.143C368.545 72.201 374.186 75.519 379.669 79.084V175.177C379.669 175.835 379.402 176.48 378.937 176.946L369.969 185.914C366.663 189.219 364.843 193.613 364.843 198.288V213.369C364.843 217.512 368.201 220.869 372.343 220.869C376.485 220.869 379.843 217.512 379.843 213.369V198.288C379.843 197.621 380.103 196.993 380.575 196.52L389.543 187.552C392.848 184.246 394.668 179.852 394.668 175.177V89.772C405.436 98.13 415.446 107.483 424.5 117.714C414.161 127.462 408.14 141.136 408.14 155.519C408.14 180.892 426.437 202.059 450.526 206.554V211.954C450.526 216.097 453.884 219.454 458.026 219.454C462.168 219.454 465.526 216.097 465.526 211.954V207.16C467.698 206.932 469.826 206.558 471.911 206.07C476.755 224.314 479.215 243.189 479.215 262.255C479.215 278.935 477.281 295.522 473.542 311.66L442.847 280.964C440.277 278.394 437.024 276.709 433.441 276.092L387.921 268.257C387.409 268.169 386.945 267.929 386.577 267.561L380.574 261.558C380.109 261.093 379.842 260.449 379.842 259.79V255.965C379.842 251.822 376.484 248.465 372.342 248.465C368.2 248.465 364.842 251.822 364.842 255.965V259.79C364.842 264.465 366.663 268.86 369.968 272.165L375.971 278.168C378.541 280.738 381.794 282.423 385.377 283.04L430.897 290.875C431.409 290.963 431.873 291.203 432.241 291.571L468.983 328.313C464.649 342.005 458.986 355.268 452.017 367.851C450.01 371.475 451.321 376.039 454.944 378.045C456.096 378.684 457.341 378.985 458.571 378.985C461.21 378.985 463.77 377.589 465.139 375.118C484.161 340.771 494.216 301.744 494.216 262.254C494.216 241.292 491.434 220.539 485.951 200.509C501.504 191.529 512 174.733 512 155.52ZM342.274 59.459C345.463 63.928 347.621 69.074 348.572 74.542C345.534 71.553 342.136 68.933 338.456 66.76C340.024 64.518 341.318 62.07 342.274 59.459ZM312.204 31.462C321.584 31.462 329.216 39.094 329.216 48.475C329.216 57.856 321.584 65.488 312.204 65.488C302.824 65.488 295.192 57.856 295.192 48.475C295.192 39.094 302.824 31.462 312.204 31.462ZM275.854 74.424C276.817 69.007 278.973 63.907 282.137 59.47C283.089 62.064 284.373 64.497 285.928 66.729C282.249 68.88 278.872 71.468 275.854 74.424ZM312.204 117.83C297.302 117.83 284.442 108.952 278.612 96.212C282.527 87.609 289.533 80.872 298.317 77.316C302.52 79.348 307.231 80.488 312.204 80.488C317.172 80.488 321.88 79.35 326.08 77.321C334.764 80.858 341.886 87.688 345.794 96.217C339.962 108.954 327.104 117.83 312.204 117.83ZM496.422 149.051C493.404 146.093 490.021 143.51 486.34 141.358C487.9 139.121 489.188 136.681 490.141 134.08C493.309 138.518 495.461 143.624 496.422 149.051ZM460.071 106.083C469.451 106.083 477.083 113.715 477.083 123.096C477.083 132.476 469.451 140.108 460.071 140.108C450.691 140.108 443.059 132.476 443.059 123.096C443.059 113.714 450.691 106.083 460.071 106.083ZM430.013 134.11C430.965 136.7 432.248 139.129 433.802 141.357C430.118 143.513 426.737 146.107 423.719 149.071C424.682 143.664 426.85 138.557 430.013 134.11ZM460.071 192.449C445.169 192.449 432.31 183.571 426.48 170.832C430.395 162.23 437.404 155.492 446.188 151.937C450.39 153.968 455.1 155.108 460.072 155.108C465.043 155.108 469.754 153.968 473.956 151.938C482.74 155.493 489.749 162.231 493.664 170.833C487.833 183.571 474.973 192.449 460.071 192.449Z" fill="#FBFBFB"/>
<path d="M285.358 376.178H274.935C270.793 376.178 267.435 379.535 267.435 383.678C267.435 387.821 270.793 391.178 274.935 391.178H285.358C289.5 391.178 292.858 387.821 292.858 383.678C292.858 379.535 289.5 376.178 285.358 376.178Z" fill="#FBFBFB"/>
<path d="M243.667 376.178C239.525 376.178 236.167 379.535 236.167 383.678C236.167 387.821 239.525 391.178 243.667 391.178H254.09C258.232 391.178 261.59 387.821 261.59 383.678C261.59 379.535 258.232 376.178 254.09 376.178H243.667Z" fill="#FBFBFB"/>
<path d="M298.704 383.678C298.704 387.821 302.062 391.178 306.204 391.178H312.204C316.346 391.178 319.704 387.821 319.704 383.678V377.678C319.704 373.535 316.346 370.178 312.204 370.178C308.531 370.178 305.475 372.818 304.829 376.304C301.344 376.95 298.704 380.005 298.704 383.678Z" fill="#FBFBFB"/>
<path d="M312.204 182.726C316.346 182.726 319.704 179.369 319.704 175.226V163.317C319.704 159.174 316.346 155.817 312.204 155.817C308.062 155.817 304.704 159.174 304.704 163.317V175.226C304.704 179.369 308.062 182.726 312.204 182.726Z" fill="#FBFBFB"/>
<path d="M304.704 282.407C304.704 286.55 308.062 289.907 312.204 289.907C316.346 289.907 319.704 286.55 319.704 282.407V270.498C319.704 266.355 316.346 262.998 312.204 262.998C308.062 262.998 304.704 266.355 304.704 270.498V282.407Z" fill="#FBFBFB"/>
<path d="M304.704 246.679C304.704 250.822 308.062 254.179 312.204 254.179C316.346 254.179 319.704 250.822 319.704 246.679V234.771C319.704 230.628 316.346 227.271 312.204 227.271C308.062 227.271 304.704 230.628 304.704 234.771V246.679Z" fill="#FBFBFB"/>
<path d="M304.704 210.953C304.704 215.096 308.062 218.453 312.204 218.453C316.346 218.453 319.704 215.096 319.704 210.953V199.045C319.704 194.902 316.346 191.545 312.204 191.545C308.062 191.545 304.704 194.902 304.704 199.045V210.953Z" fill="#FBFBFB"/>
<path d="M304.704 318.133C304.704 322.276 308.062 325.633 312.204 325.633C316.346 325.633 319.704 322.276 319.704 318.133V306.224C319.704 302.081 316.346 298.724 312.204 298.724C308.062 298.724 304.704 302.081 304.704 306.224V318.133Z" fill="#FBFBFB"/>
<path d="M304.704 353.86C304.704 358.003 308.062 361.36 312.204 361.36C316.346 361.36 319.704 358.003 319.704 353.86V341.951C319.704 337.808 316.346 334.451 312.204 334.451C308.062 334.451 304.704 337.808 304.704 341.951V353.86Z" fill="#FBFBFB"/>
<path d="M420.631 242.056C424.773 242.056 428.131 238.699 428.131 234.556C428.131 230.413 424.773 227.056 420.631 227.056H408.631C404.489 227.056 401.131 230.413 401.131 234.556C401.131 238.699 404.489 242.056 408.631 242.056H420.631Z" fill="#FBFBFB"/>
<path d="M372.631 242.056H384.631C388.773 242.056 392.131 238.699 392.131 234.556C392.131 230.413 388.773 227.056 384.631 227.056H372.631C368.489 227.056 365.131 230.413 365.131 234.556C365.131 238.699 368.489 242.056 372.631 242.056Z" fill="#FBFBFB"/>
<path d="M348.631 242.056C352.773 242.056 356.131 238.699 356.131 234.556C356.131 230.413 352.773 227.056 348.631 227.056H336.631C332.489 227.056 329.131 230.413 329.131 234.556C329.131 238.699 332.489 242.056 336.631 242.056H348.631Z" fill="#FBFBFB"/>
<path d="M456.631 242.056C460.773 242.056 464.131 238.699 464.131 234.556C464.131 230.413 460.773 227.056 456.631 227.056H444.631C440.489 227.056 437.131 230.413 437.131 234.556C437.131 238.699 440.489 242.056 444.631 242.056H456.631Z" fill="#FBFBFB"/>
<path d="M180.357 242.056C184.499 242.056 187.857 238.699 187.857 234.556C187.857 230.413 184.499 227.056 180.357 227.056H168.357C164.215 227.056 160.857 230.413 160.857 234.556C160.857 238.699 164.215 242.056 168.357 242.056H180.357Z" fill="#FBFBFB"/>
<path d="M252.357 227.056H240.357C236.215 227.056 232.857 230.413 232.857 234.556C232.857 238.699 236.215 242.056 240.357 242.056H252.357C256.499 242.056 259.857 238.699 259.857 234.556C259.857 230.413 256.5 227.056 252.357 227.056Z" fill="#FBFBFB"/>
<path d="M144.357 242.056C148.499 242.056 151.857 238.699 151.857 234.556C151.857 230.413 148.499 227.056 144.357 227.056H132.357C128.215 227.056 124.857 230.413 124.857 234.556C124.857 238.699 128.215 242.056 132.357 242.056H144.357Z" fill="#FBFBFB"/>
<path d="M216.357 242.056C220.499 242.056 223.857 238.699 223.857 234.556C223.857 230.413 220.499 227.056 216.357 227.056H204.357C200.215 227.056 196.857 230.413 196.857 234.556C196.857 238.699 200.215 242.056 204.357 242.056H216.357Z" fill="#FBFBFB"/>
<path d="M276.357 242.056H288.357C292.499 242.056 295.857 238.699 295.857 234.556C295.857 230.413 292.499 227.056 288.357 227.056H276.357C272.215 227.056 268.857 230.413 268.857 234.556C268.857 238.699 272.215 242.056 276.357 242.056Z" fill="#FBFBFB"/>
</svg>
